<svg width="426" height="392" viewBox="0 0 426 392" fill="none" xmlns="http://www.w3.org/2000/svg">
<path d="M234.582 142.378L238.297 167.848C238.525 169.416 240.398 170.108 241.591 169.066L255.588 156.847L287.299 129.149C288.913 127.739 287.479 125.122 285.422 125.723L236 140.17C235.043 140.45 234.438 141.391 234.582 142.378Z" fill="white" stroke="white"/>
<path d="M172.261 158.961L183.258 168.607C184.544 169.734 183.914 171.851 182.22 172.091L159.954 175.245C159.116 175.364 158.294 174.942 157.901 174.191L136.15 132.598C135.125 130.638 137.57 128.71 139.237 130.164L172.261 158.961Z" fill="white" stroke="white"/>
<path d="M190.778 249.596L187.064 224.125C186.835 222.558 184.962 221.866 183.769 222.907L169.772 235.127L138.062 262.825C136.447 264.234 137.881 266.852 139.938 266.25L189.36 251.804C190.317 251.524 190.922 250.582 190.778 249.596Z" fill="white" stroke="white"/>
<path d="M253.1 233.012L242.102 223.367C240.817 222.239 241.447 220.122 243.14 219.883L265.406 216.729C266.245 216.61 267.067 217.032 267.459 217.782L289.21 259.375C290.235 261.335 287.791 263.263 286.124 261.81L253.1 233.012Z" fill="white" stroke="white"/>
<path d="M212.839 220.206L212.824 351.863C212.824 355.571 218.224 355.987 218.782 352.32C227.415 295.584 237.029 232.222 238.623 221.718C238.771 220.739 238.419 219.802 237.695 219.127L217.886 200.647C215.968 198.858 212.839 200.218 212.839 202.84L212.839 220.206Z" fill="white" stroke="white"/>
<path d="M187.063 170.108L206.873 39.3733C207.429 35.7051 212.839 36.1075 212.839 39.8175V172.283V189.038C212.839 191.66 209.711 193.02 207.793 191.231L187.983 172.751C187.259 172.076 186.915 171.087 187.063 170.108Z" fill="white" stroke="white"/>
<path d="M187.902 219.352L207.305 201.173C209.291 199.313 207.974 195.984 205.254 195.984L180.354 195.984L0.0644531 196.17L185.467 220.138C186.355 220.252 187.248 219.964 187.902 219.352Z" fill="white" stroke="white"/>
<path d="M237.762 172.769L218.359 190.948C216.374 192.808 217.69 196.137 220.41 196.137L245.31 196.137L425.6 195.951L240.197 171.983C239.309 171.869 238.416 172.157 237.762 172.769Z" fill="white" stroke="white"/>
</svg>
